PathFileType	4	(X/Y/Z)	c:\Git\powerlifing_model_clean\simulations\HC835B\Session1\HC835B_CUT_0004\marker_experimental.trc
DataRate	CameraRate	NumFrames	NumMarkers	Units	OrigDataRate	OrigDataStartFrame	OrigNumFrames
240.000000	240.000000	4	38	mm	240.000000	38	77
Frame#	Time	RPSI			LPSI			RASI			LASI			RTH1			RTH2			RTH3			RTH4			RSK1			RSK2			RSK3			RSK4			RCAL1			RCAL2			RCAL3			RST			RPT			RTN			RFMB			RSMB			RVMB			RFMH			RSMH			RVMH			RPM			LTH1			LTH2			LTH3			LTH4			LSK1			LSK2			LSK3			LSK4			LCAL1			LCAL2			LCAL3			LFMH			LVMH			
		X1	Y1	Z1	X2	Y2	Z2	X3	Y3	Z3	X4	Y4	Z4	X5	Y5	Z5	X6	Y6	Z6	X7	Y7	Z7	X8	Y8	Z8	X9	Y9	Z9	X10	Y10	Z10	X11	Y11	Z11	X12	Y12	Z12	X13	Y13	Z13	X14	Y14	Z14	X15	Y15	Z15	X16	Y16	Z16	X17	Y17	Z17	X18	Y18	Z18	X19	Y19	Z19	X20	Y20	Z20	X21	Y21	Z21	X22	Y22	Z22	X23	Y23	Z23	X24	Y24	Z24	X25	Y25	Z25	X26	Y26	Z26	X27	Y27	Z27	X28	Y28	Z28	X29	Y29	Z29	X30	Y30	Z30	X31	Y31	Z31	X32	Y32	Z32	X33	Y33	Z33	X34	Y34	Z34	X35	Y35	Z35	X36	Y36	Z36	X37	Y37	Z37	X38	Y38	Z38	

39	0.1583333333333333	113.5756378173828	1016.17431640625	-384.005584716797	25.77747154235841	968.8098754882815	-353.7924499511719	151.1220855712891	991.6116943359377	-604.8209838867189	-64.51792144775392	882.887390136719	-533.1328125000001	317.0035705566407	760.4983520507814	-612.3553466796876	295.7790832519532	756.4685668945314	-669.1583862304689	324.3363952636719	685.6924438476564	-651.2508544921876	294.6105041503907	677.4427490234376	-701.0730590820314	459.7405395507814	300.5312500000001	-531.9458618164064	457.5394287109376	264.0298461914063	-581.9036865234376	476.5477905273439	244.4485473632813	-527.5266723632814	462.4935607910157	206.2798767089844	-571.9846191406251	506.1707458496095	106.4008255004883	-411.2129821777345	476.7608032226564	66.3722381591797	-404.5504455566407	539.8197021484376	71.28627014160158	-418.0328979492189	442.6873779296876	66.3173065185547	-468.3441772460939	549.0679931640626	76.41738891601564	-482.3200073242189	440.4893188476564	78.12216186523439	-528.9797363281251	441.3484191894532	67.5935745239258	-561.9346923828126	484.4313964843751	91.2278289794922	-579.9511718750001	553.3169555664064	46.95053482055665	-524.0479736328126	434.054656982422	46.07579803466798	-610.2138671875001	482.6952514648439	55.52309417724611	-638.4707641601564	551.4985961914064	32.96590423583985	-603.0238647460939	456.0056762695314	35.85387420654298	-691.9357910156251	-70.01821899414064	627.4856567382814	-578.4583740234376	-93.45383453369142	650.1694946289064	-630.0394287109376	-67.96308898925783	573.9169921875001	-645.4001464843751	-77.7923049926758	601.8441772460939	-699.3001708984376	134.2538452148438	467.2109375000001	-495.1506652832032	150.555892944336	416.153289794922	-494.9776611328126	169.0553894042969	443.2863769531251	-457.3977355957032	197.6270446777344	395.5891113281251	-467.5970764160157	283.7166748046876	492.035125732422	-342.6842041015626	275.3612976074219	472.607879638672	-300.1333312988282	326.8888854980469	490.1583862304689	-323.1028137207032	377.4072570800782	293.6205139160157	-411.6587524414064	296.0812072753907	282.9587402343751	-337.5827331542969	
40	0.1625	107.5321655273438	1016.765380859375	-402.4490661621095	20.5681381225586	969.6633300781252	-371.7933654785157	144.1826629638672	991.5542602539065	-623.5858154296876	-72.13774871826173	882.9776000976565	-548.9183959960939	313.3036499023438	759.0541381835939	-625.2440185546876	292.7646484375001	752.8349609375001	-682.0820312500001	321.8387451171876	682.9859008789064	-661.3417968750001	293.3744506835938	672.9684448242189	-711.5682373046876	460.015594482422	301.2663269042969	-535.8759765625001	457.6467285156251	263.8440856933594	-584.8433227539064	476.4595031738282	245.1612548828126	-530.3225097656251	462.4901428222657	206.1251983642579	-574.1238403320314	506.7042236328126	108.3618240356446	-411.9887084960939	477.4612731933595	68.41104888916017	-404.8651123046876	540.4049072265626	73.29048156738283	-418.5979614257814	443.3318176269532	67.66741943359376	-468.5252990722657	549.5700073242189	77.86943817138673	-482.8729553222657	441.0343627929689	78.97982025146486	-529.3141479492189	441.9370117187501	67.90550994873048	-561.8175659179689	484.9192810058595	91.82219696044923	-580.6914062500001	553.7749023437501	47.82181930541993	-524.3654785156251	434.4092712402345	46.16841888427735	-610.2006835937501	483.0245666503907	55.32431411743165	-638.6145019531251	551.8670654296876	32.86506271362305	-603.1897583007814	456.0783691406251	35.9422836303711	-691.7992553710939	-81.13394927978517	632.8939208984376	-600.5817260742189	-104.3467864990235	656.9462890625001	-651.3629150390626	-80.76200103759767	581.0616455078126	-668.8015136718751	-90.33140563964845	610.1777343750001	-721.8795776367189	122.4936904907227	464.0922241210939	-524.3848876953126	138.5359039306641	412.682830810547	-526.6080932617189	157.5345764160157	438.336883544922	-487.8812866210939	185.5836944580078	391.038787841797	-500.2722167968751	274.6189880371094	481.2790832519532	-372.3643188476563	266.9186096191407	459.957733154297	-330.6653442382813	318.1156921386719	477.8793029785157	-353.6028137207032	363.8996582031251	284.7763366699219	-451.6744384765626	283.7591857910157	272.1175537109376	-376.8911743164063	
41	0.1666666666666667	101.431137084961	1017.75634765625	-421.1917419433595	15.45616245269776	970.8253173828127	-389.9472656250001	136.9647216796875	991.5181884765627	-642.7562255859376	-79.96488189697267	883.4983520507815	-565.2352294921876	309.1622009277344	758.0961303710939	-638.0817871093751	289.3212585449219	749.6577148437501	-694.8870239257814	319.3190612792969	681.0960083007814	-671.3591918945314	291.8748779296876	668.8793334960939	-721.8325195312501	459.781463623047	302.1658325195313	-539.5232543945314	457.476531982422	263.9509887695313	-587.8521728515626	476.3441162109376	246.0702667236329	-533.1592407226564	462.5644836425782	206.4792175292969	-576.2280273437501	507.2511291503907	110.8117446899414	-412.9598693847657	477.8218078613282	71.07474517822267	-405.4301757812501	540.8056640625001	75.53863525390626	-419.187469482422	443.8184204101564	69.80374908447267	-468.9260253906251	550.1140747070314	79.39409637451173	-483.4592590332032	441.2789001464845	80.49983215332033	-530.2888183593751	442.3839416503907	68.94229888916017	-562.5802612304689	485.5786132812501	92.41317749023439	-581.5328369140626	554.1163330078126	48.58165740966798	-524.6600952148439	434.7134094238282	46.32833480834962	-610.2302246093751	483.6116333007814	55.1453323364258	-638.7434082031251	552.1607666015626	32.72489166259766	-603.3002929687501	456.1622924804689	36.02276611328126	-691.6511840820314	-92.02269744873048	638.7596435546876	-622.0305786132814	-116.1488800048828	665.1661376953126	-671.9052734375001	-93.47427368164064	588.3698120117189	-691.4985961914064	-103.2012176513672	619.3724975585939	-743.7843017578126	110.7808609008789	460.7341918945314	-553.4854125976564	126.1464309692383	409.6924438476564	-557.5228271484376	146.0177154541016	433.382293701172	-518.3872070312501	173.4807434082032	386.4863586425782	-532.8823852539064	265.7540893554688	470.0775451660157	-402.5257873535157	258.4376220703126	446.5841064453126	-361.6226806640626	309.3865051269532	464.966033935547	-384.487518310547	350.0145874023438	275.8748474121094	-492.1636352539064	271.1757812500001	261.2712402343751	-416.5231018066407	
42	0.1708333333333333	95.67412567138673	1019.506591796875	-439.5767211914064	10.76813793182373	972.4873657226565	-407.6488037109376	129.4521636962891	991.4711914062502	-662.2683715820314	-87.84410095214845	884.0644531250002	-581.5905761718751	304.6398620605469	757.7501220703126	-650.7483520507814	285.5798339843751	747.3178710937501	-707.2925415039064	316.3906250000001	679.9593505859376	-681.4887695312501	289.8939514160157	665.7238769531251	-731.9989624023439	459.4805908203126	303.3791503906251	-543.1212158203126	456.8880615234376	264.4350585937501	-591.2498779296876	476.2545471191407	247.7041625976563	-535.8359375000001	462.6306762695314	207.2867279052735	-578.4497070312501	507.8708801269532	113.7567596435547	-414.1528625488282	478.3348083496095	74.33395385742189	-405.996795654297	541.2565307617189	78.32449340820314	-419.9414978027345	444.1509094238282	72.19209289550783	-469.5490112304689	550.6514892578126	81.24092864990236	-484.2049560546876	441.9748840332032	82.21520996093751	-531.2565307617189	443.057342529297	70.19445037841798	-563.2617797851564	486.3536376953126	93.07211303710939	-582.6359252929689	554.4692382812501	49.63233566284181	-525.0547485351564	435.037322998047	46.52998352050782	-610.3956909179689	484.0095520019532	54.83366775512697	-639.1738281250001	552.4484252929689	32.60523986816407	-603.4304199218751	456.2417907714845	36.09800720214844	-691.4985961914064	-102.6975784301758	644.3827514648439	-643.0514526367189	-126.7757720947266	672.1162109375001	-692.0691528320314	-105.8922348022461	595.9194946289064	-713.6856689453126	-115.3198852539063	627.9403686523439	-765.1675415039064	99.05139160156253	457.2742309570314	-582.3790283203126	114.0376968383789	406.3265380859376	-589.0510864257814	134.6304473876953	428.1725158691407	-549.2370605468751	161.1946258544922	381.5006103515626	-565.8525390625001	256.7951660156251	458.2466430664064	-433.0083618164064	249.7493286132813	432.800750732422	-393.2362670898439	300.5557861328126	451.5088806152345	-415.8685913085939	335.8859558105469	266.7877502441407	-532.9824218750001	258.0770874023438	250.092025756836	-456.6823120117189	
